<?xml version="1.0" standalone="no"?>
<!DOCTYPE svg PUBLIC "-//W3C//DTD SVG 20010904//EN"
 "http://www.w3.org/TR/2001/REC-SVG-20010904/DTD/svg10.dtd">
<svg version="1.0" xmlns="http://www.w3.org/2000/svg"
 width="70.000000pt" height="70.000000pt" viewBox="0 0 70.000000 70.000000"
 preserveAspectRatio="xMidYMid meet">

<g transform="translate(0.000000,70.000000) scale(0.100000,-0.100000)"
fill="#0000FF" stroke="none">
<path d="M150 439 l0 -80 37 3 c32 3 39 7 43 30 l5 26 37 -42 37 -43 -40 -39
-39 -38 0 32 c0 31 -2 32 -40 32 l-40 0 0 -80 0 -80 38 0 c35 0 43 6 93 64 30
36 57 65 60 65 4 1 32 -28 64 -64 52 -59 60 -65 96 -65 l39 0 0 80 0 80 -40 0
c-38 0 -40 -1 -40 -32 l0 -33 -35 40 c-19 22 -34 43 -35 46 0 3 16 23 35 45
l34 39 1 -32 c0 -32 2 -33 40 -33 l40 0 0 80 0 80 -38 0 c-34 0 -43 -6 -92
-65 -30 -35 -58 -65 -62 -65 -4 0 -33 29 -64 65 -52 59 -61 65 -96 65 l-38 0
0 -81z"/>
</g>
</svg>
